#!OML:ASF X:\für Bonn\!DataBase\2005_08_12_Daniel\c3d\Daniel.ASF
:FULLY-SPECIFIED
:DEGREES
1
root 18.8205 16.3273 19.3572 888.555 -43.6168 -899.234
lowerback 41.6773 -1.01578 5.41968
upperback 10.7734 -1.92937 -1.12642
thorax -7.92438 -1.98669 -3.05052
lowerneck -6.55096 1.5224 -3.05767
upperneck -4.91913 1.77856 -5.83373
head -0.407052 0.800727 -1.26031
rclavicle 1.38155e-014 -6.65929e-015
rhumerus -35.0702 6.04001 -90.9077
rradius 58.7515
rwrist 5.55282
rhand -20.4717 20.041
rfingers 7.12502
rthumb 5.88443 -9.85724
lclavicle 1.38155e-014 -6.65929e-015
lhumerus -23.9751 16.1421 86.4944
lradius 51.5321
lwrist -11.8423
lhand -9.47737 -8.96226
lfingers 7.12502
lthumb 16.4869 20.3572
rfemur -14.1225 3.91289 26.104
rtibia 55.5059
rfoot -26.1201 -1.34897
rtoes -8.0591
lfemur -24.5422 1.98 -18.4978
ltibia 75.7944
lfoot -20.6455 -6.48903
ltoes -7.66357
2
root 18.7523 16.3297 19.2705 888.392 -43.7799 -899.326
lowerback 41.789 -0.862 5.26408
upperback 10.7796 -1.80555 -1.1677
thorax -7.9433 -1.93028 -3.063
lowerneck -6.58071 1.42022 -3.26095
upperneck -4.87833 1.66659 -5.60261
head -0.395763 0.748149 -1.15516
rclavicle 7.36994e-014 -5.57591e-014
rhumerus -34.9699 6.11545 -90.9335
rradius 59.0588
rwrist 5.56783
rhand -20.7653 20.0722
rfingers 7.12502
rthumb 5.60099 -9.83378
lclavicle 7.36994e-014 -5.57591e-014
lhumerus -24.2446 16.4131 86.2013
lradius 51.6977
lwrist -11.7319
lhand -9.56777 -8.99076
lfingers 7.12502
lthumb 16.3998 20.3359
rfemur -13.5904 3.78832 26.1188
rtibia 55.7598
rfoot -26.1064 -1.49858
rtoes -8.34261
lfemur -25.3727 1.70808 -18.6826
ltibia 74.8192
lfoot -20.6346 -6.54594
ltoes -7.94405
3
root 18.6827 16.3327 19.184 888.261 -43.9344 -899.447
lowerback 41.8555 -0.699099 5.09498
upperback 10.7936 -1.67911 -1.22246
thorax -7.94075 -1.87135 -3.08562
lowerneck -6.68149 1.31784 -3.37085
upperneck -4.72663 1.55918 -5.44995
head -0.336634 0.69253 -1.08951
rclavicle 3.37934e-014 -3.07122e-014
rhumerus -34.9258 6.24389 -90.9574
rradius 59.4516
rwrist 5.5169
rhand -21.0672 20.0869
rfingers 7.12502
rthumb 5.3095 -9.82654
lclavicle 3.37934e-014 -3.07122e-014
lhumerus -24.5162 16.6623 85.8923
lradius 51.8249
lwrist -11.6157
lhand -9.75075 -9.08779
lfingers 7.12502
lthumb 16.2237 20.2534
rfemur -13.0667 3.62104 26.0803
rtibia 55.9892
rfoot -26.0554 -1.56357
rtoes -8.49443
lfemur -26.1308 1.41469 -18.8821
ltibia 73.7443
lfoot -20.6159 -6.69417
ltoes -8.3084
4
root 18.6114 16.3302 19.0999 888.077 -44.0945 -899.489
lowerback 41.9437 -0.565833 5.02165
upperback 10.8032 -1.54928 -1.27794
thorax -7.94866 -1.81064 -3.15919
lowerneck -6.77674 1.21165 -3.47318
upperneck -4.58411 1.4475 -5.25283
head -0.281427 0.635825 -1.01187
rclavicle 6.34123e-014 -2.23633e-014
rhumerus -34.836 6.29765 -90.9572
rradius 59.8104
rwrist 5.43671
rhand -21.3335 20.1438
rfingers 7.12502
rthumb 5.05229 -9.77595
lclavicle 6.34123e-014 -2.23633e-014
lhumerus -24.7755 16.8875 85.6161
lradius 51.9841
lwrist -11.463
lhand -10.0164 -8.98147
lfingers 7.12502
lthumb 15.9678 20.3804
rfemur -12.5187 3.46653 26.0948
rtibia 56.1844
rfoot -26.0486 -1.56368
rtoes -8.66145
lfemur -26.8431 1.15409 -19.0282
ltibia 72.6074
lfoot -20.6686 -6.89181
ltoes -8.90057
5
root 18.5374 16.3337 19.0134 887.905 -44.189 -899.55
lowerback 42.002 -0.387016 4.91584
upperback 10.8154 -1.37946 -1.34539
thorax -7.94235 -1.73078 -3.24631
lowerneck -6.82767 1.10817 -3.45595
upperneck -4.4674 1.32667 -5.12206
head -0.239416 0.574318 -0.975508
rclavicle -2.49475e-014 4.23411e-014
rhumerus -34.8079 6.3857 -90.9855
rradius 60.2159
rwrist 5.37182
rhand -21.6111 20.1947
rfingers 7.12502
rthumb 4.78428 -9.73125
lclavicle -2.49475e-014 4.23411e-014
lhumerus -25.0382 17.0704 85.2696
lradius 52.1469
lwrist -11.3978
lhand -10.1225 -8.88336
lfingers 7.12502
lthumb 15.8657 20.4866
rfemur -11.9416 3.34167 26.1003
rtibia 56.3418
rfoot -26.0375 -1.58157
rtoes -8.61716
lfemur -27.4237 0.938005 -19.1672
ltibia 71.3357
lfoot -20.737 -6.99196
ltoes -9.83273
6
root 18.4631 16.3328 18.9294 887.72 -44.3306 -899.617
lowerback 42.102 -0.26271 4.81237
upperback 10.8091 -1.27349 -1.42274
thorax -7.97434 -1.68078 -3.31763
lowerneck -6.86405 1.0305 -3.4146
upperneck -4.36446 1.23489 -5.04371
head -0.202968 0.527058 -0.959176
rclavicle -5.46658e-015 -3.71727e-014
rhumerus -34.7769 6.44656 -91.027
rradius 60.5553
rwrist 5.4512
rhand -21.8578 20.255
rfingers 7.12502
rthumb 4.54604 -9.67618
lclavicle -5.46658e-015 -3.71727e-014
lhumerus -25.3352 17.3822 84.9382
lradius 52.3658
lwrist -11.2426
lhand -10.3167 -8.67444
lfingers 7.12502
lthumb 15.6786 20.7103
rfemur -11.3451 3.13852 26.0749
rtibia 56.4856
rfoot -26.0715 -1.59714
rtoes -9.04094
lfemur -27.9632 0.686538 -19.3091
ltibia 69.9874
lfoot -20.6951 -7.18412
ltoes -10.4155
7
root 18.3855 16.3331 18.8439 887.569 -44.4649 -899.698
lowerback 42.1167 -0.118013 4.71156
upperback 10.8372 -1.14717 -1.49249
thorax -7.94066 -1.6206 -3.3931
lowerneck -6.86794 0.952058 -3.40509
upperneck -4.29558 1.14152 -4.9203
head -0.18287 0.481339 -0.923952
rclavicle -1.83876e-014 3.3197e-014
rhumerus -34.7331 6.51387 -91.0317
rradius 60.9632
rwrist 5.38098
rhand -22.0832 20.2281
rfingers 7.12502
rthumb 4.32846 -9.70763
lclavicle -1.83876e-014 3.3197e-014
lhumerus -25.5651 17.7072 84.6289
lradius 52.528
lwrist -11.2795
lhand -10.5031 -8.55201
lfingers 7.12502
lthumb 15.4991 20.8468
rfemur -10.7573 2.9098 26.0103
rtibia 56.6053
rfoot -26.155 -1.55892
rtoes -9.10761
lfemur -28.4125 0.39342 -19.4497
ltibia 68.5148
lfoot -20.6498 -7.35026
ltoes -10.9466
8
root 18.3062 16.3342 18.7593 887.46 -44.6236 -899.812
lowerback 42.1189 -0.00328399 4.64311
upperback 10.8322 -1.03976 -1.61278
thorax -7.94369 -1.56476 -3.53169
lowerneck -6.80751 0.856494 -3.26516
upperneck -4.16572 1.02083 -4.82713
head -0.153198 0.42145 -0.920218
rclavicle -6.36111e-015 1.41137e-014
rhumerus -34.7285 6.5866 -91.0713
rradius 61.3216
rwrist 5.3976
rhand -22.3205 20.3024
rfingers 7.12502
rthumb 4.09924 -9.63786
lclavicle -6.36111e-015 1.41137e-014
lhumerus -25.8658 17.891 84.282
lradius 52.727
lwrist -11.1887
lhand -10.7667 -8.21687
lfingers 7.12502
lthumb 15.2452 21.2014
rfemur -10.1567 2.69729 25.9078
rtibia 56.6973
rfoot -26.2436 -1.50044
rtoes -9.23529
lfemur -28.8153 0.00674606 -19.6085
ltibia 66.934
lfoot -20.6255 -7.44198
ltoes -11.4143
9
root 18.224 16.3327 18.6738 887.257 -44.7182 -899.841
lowerback 42.1445 0.105762 4.60218
upperback 10.8271 -0.929568 -1.71717
thorax -7.95198 -1.50982 -3.66801
lowerneck -6.62578 0.803794 -3.08668
upperneck -4.1818 0.936306 -4.8134
head -0.186921 0.383081 -0.947429
rclavicle -2.0276e-014 -3.79679e-014
rhumerus -34.7157 6.6438 -91.1347
rradius 61.6955
rwrist 5.40657
rhand -22.4732 20.2435
rfingers 7.12502
rthumb 3.95182 -9.69964
lclavicle -2.0276e-014 -3.79679e-014
lhumerus -26.1692 18.1737 83.8974
lradius 52.9321
lwrist -11.1136
lhand -10.8402 -7.97909
lfingers 7.12502
lthumb 15.1744 21.4445
rfemur -9.49705 2.48335 25.8759
rtibia 56.7479
rfoot -26.3261 -1.44982
rtoes -9.26145
lfemur -29.0997 -0.352314 -19.6508
ltibia 65.2682
lfoot -20.5274 -7.57109
ltoes -11.3537
10
root 18.1421 16.334 18.5881 887.109 -44.8329 -899.901
lowerback 42.1078 0.222638 4.50722
upperback 10.8357 -0.832163 -1.80902
thorax -7.92784 -1.46019 -3.75894
lowerneck -6.55033 0.746415 -2.95937
upperneck -4.08816 0.863299 -4.73834
head -0.170554 0.347783 -0.946459
rclavicle 6.36111e-015 1.07344e-014
rhumerus -34.6394 6.82774 -91.1438
rradius 62.038
rwrist 5.27623
rhand -22.5998 20.1334
rfingers 7.12502
rthumb 3.82953 -9.81197
lclavicle 6.36111e-015 1.07344e-014
lhumerus -26.4583 18.4486 83.5325
lradius 53.1474
lwrist -11.1229
lhand -11.007 -7.71609
lfingers 7.12502
lthumb 15.0138 21.7196
rfemur -8.83671 2.2759 25.8082
rtibia 56.7424
rfoot -26.4582 -1.3464
rtoes -9.32427
lfemur -29.3523 -0.825839 -19.7018
ltibia 63.509
lfoot -20.4117 -7.5914
ltoes -11.3698
11
root 18.059 16.3335 18.5008 886.984 -44.9557 -900.008
lowerback 42.0488 0.334332 4.3916
upperback 10.8581 -0.75487 -1.92069
thorax -7.88421 -1.41973 -3.85249
lowerneck -6.42982 0.698431 -2.85968
upperneck -4.03902 0.799192 -4.66457
head -0.175316 0.318685 -0.941318
rclavicle 8.54774e-015 -3.24019e-014
rhumerus -34.5456 6.98779 -91.1973
rradius 62.3399
rwrist 5.18599
rhand -22.6885 20.0239
rfingers 7.12502
rthumb 3.7439 -9.92299
lclavicle 8.54774e-015 -3.24019e-014
lhumerus -26.7469 18.6378 83.1276
lradius 53.3795
lwrist -11.0037
lhand -11.2054 -7.53691
lfingers 7.12502
lthumb 14.8226 21.9129
rfemur -8.13435 2.03949 25.6903
rtibia 56.7016
rfoot -26.5641 -1.22997
rtoes -9.54693
lfemur -29.5266 -1.26623 -19.7745
ltibia 61.6532
lfoot -20.1084 -7.71744
ltoes -11.2463
